<svg width="187" height="189" viewBox="0 0 187 189" fill="none" xmlns="http://www.w3.org/2000/svg">
<path d="M93.5434 0.194336C143.365 -0.206732 186.515 41.9495 186.385 94.5656C186.251 147.675 143.716 188.849 93.4448 188.808C42.3604 188.768 0.469381 146.083 0.615371 94.2006C0.765306 42.0939 43.0548 -0.0864114 93.5434 0.194336ZM97.8244 173.111C97.8284 173.111 97.8363 173.111 97.8402 173.111C97.8402 174.579 97.9073 176.055 97.8205 177.518C97.7416 178.866 98.2032 179.179 99.529 179.091C110.024 178.413 119.944 175.625 129.413 171.025C130.782 170.359 130.743 169.718 130.068 168.579C128.644 166.18 127.291 163.734 125.957 161.283C124.994 159.514 125.294 157.766 126.387 156.19C127.496 154.585 129.177 154.301 130.964 154.537C132.641 154.758 133.58 156.021 134.373 157.329C135.754 159.599 137.048 161.925 138.327 164.259C138.859 165.226 139.36 165.434 140.331 164.748C148.976 158.604 156.398 151.236 162.269 142.289C162.983 141.202 162.699 140.684 161.681 140.123C159.317 138.815 156.95 137.5 154.669 136.048C152.069 134.396 151.363 131.676 152.76 129.346C154.121 127.08 156.946 126.483 159.503 127.95C161.732 129.23 163.973 130.493 166.159 131.849C167.355 132.591 168.057 132.37 168.574 131.063C169.359 129.081 170.251 127.148 171.028 125.163C174.035 117.479 175.696 109.477 176.442 101.259C176.588 99.6391 176.106 98.9613 174.402 99.0335C171.715 99.1498 169.016 99.1057 166.325 99.0375C163.977 98.9813 162.375 97.4894 162.001 95.1712C161.547 92.3677 163.504 89.9934 166.704 89.7688C169.253 89.5923 171.829 89.6244 174.386 89.7127C176.071 89.7688 176.647 89.0669 176.426 87.4547C176.158 85.4734 175.941 83.4841 175.672 81.5028C174.556 73.2328 172.015 65.408 168.578 57.8518C167.935 56.4361 167.335 56.3077 166.076 57.1259C163.973 58.4895 161.776 59.7008 159.586 60.912C156.717 62.4962 154.089 61.8946 152.752 59.416C151.446 57.0016 152.353 54.3264 155.088 52.6821C157.12 51.4548 159.156 50.2235 161.255 49.1246C162.758 48.3385 163.046 47.6407 161.981 46.1006C156.027 37.4776 148.747 30.2504 140.276 24.2103C139.238 23.4683 138.768 23.5886 138.181 24.6916C136.871 27.1581 135.521 29.6086 134.038 31.9709C132.483 34.4495 130.238 35.1233 127.95 34.0204C125.46 32.8212 124.635 30.0338 126.075 27.1822C127.152 25.0485 128.411 23.0031 129.603 20.9295C130.897 18.6796 130.917 18.6595 128.53 17.5004C119.419 13.0806 109.78 10.6823 99.7618 9.69964C98.2861 9.55526 97.7653 10.0847 97.8126 11.5887C97.8994 14.1916 97.856 16.7985 97.8284 19.4015C97.7968 22.3974 96.041 24.4068 93.4172 24.5071C90.7775 24.6113 88.8205 22.7544 88.6074 19.7664C88.4733 17.9055 88.5561 16.0285 88.5561 14.1595C88.5522 9.71969 88.5443 9.62344 84.2317 10.0686C74.8726 11.0352 65.9436 13.59 57.4644 17.7691C56.036 18.475 55.8466 19.209 56.6437 20.5525C58.0365 22.8948 59.3543 25.2851 60.6169 27.6996C61.5955 29.5766 61.2522 31.626 59.8751 33.0658C58.4823 34.5177 56.4779 34.9549 54.8247 34.1006C53.495 33.4148 52.5678 32.2918 51.8418 30.9923C50.6384 28.8466 49.4073 26.7169 48.2591 24.5391C47.7699 23.6087 47.3201 23.4683 46.4402 24.0779C37.5901 30.1982 30.2157 37.8105 24.1117 46.7262C23.4528 47.6888 23.6028 48.158 24.5971 48.7155C27.1775 50.1714 29.8014 51.5912 32.2122 53.3077C34.6427 55.0363 35.0057 57.5831 33.5063 59.7689C32.003 61.9588 29.5962 62.432 27.0631 60.9922C25.0587 59.8532 23.0701 58.674 21.0815 57.5069C18.8285 56.1874 18.7575 56.1834 17.6251 58.6018C13.3441 67.7462 11.0358 77.4119 10.0968 87.4707C9.93106 89.2274 10.302 89.7247 11.971 89.7167C14.7921 89.7046 17.6251 89.4439 20.4304 89.8811C23.3108 90.3303 24.6996 92.1471 24.4826 95.0148C24.3051 97.3771 22.3914 99.0214 19.7163 99.0535C17.0214 99.0856 14.3265 99.1137 11.6356 99.0455C10.1915 99.0094 9.8048 99.5388 10.0613 100.971C10.3809 102.735 10.4479 104.548 10.6886 106.333C11.8447 114.924 14.216 123.15 17.8973 130.987C18.5129 132.298 19.0929 132.667 20.4186 131.817C22.5808 130.425 24.8338 129.178 27.0907 127.942C29.7816 126.471 32.4529 127.092 33.7865 129.414C35.1122 131.72 34.2876 134.476 31.7111 136.08C29.6396 137.372 27.5602 138.655 25.402 139.79C23.8158 140.624 23.5396 141.35 24.6444 142.954C30.5195 151.477 37.7558 158.56 46.089 164.556C47.3122 165.438 47.8646 165.141 48.4998 163.95C49.7822 161.544 51.0724 159.133 52.5205 156.831C54.1066 154.313 56.8528 153.747 59.2044 155.259C61.2325 156.567 61.773 159.398 60.4157 161.837C59.1255 164.163 57.8392 166.493 56.4582 168.763C55.7796 169.878 55.8979 170.436 57.1132 171.025C66.4052 175.505 76.1233 178.292 86.4057 179.05C88.1576 179.179 88.6863 178.742 88.6547 176.933C88.5995 173.941 88.2996 170.917 88.9152 167.945C89.3926 165.639 91.4364 164.175 93.7012 164.408C96.112 164.652 97.7021 166.285 97.8087 168.711C97.8757 170.171 97.8244 171.639 97.8244 173.111Z" fill="#FCEE21" fill-opacity="0.15"/>
</svg>
